<?xml version="1.0" encoding="UTF-8" standalone="no" ?>
<!DOCTYPE svg PUBLIC "-//W3C//DTD SVG 1.1//EN" "http://www.w3.org/Graphics/SVG/1.1/DTD/svg11.dtd">
<svg xmlns="http://www.w3.org/2000/svg" xmlns:xlink="http://www.w3.org/1999/xlink" version="1.1" width="1080" height="1080" viewBox="0 0 1080 1080" xml:space="preserve">
<desc>Created with Fabric.js 5.2.4</desc>
<defs>
</defs>
<g transform="matrix(1 0 0 1 540 540)" id="ece82d90-edff-40bd-b895-819dc8ffd21b"  >
</g>
<g transform="matrix(1 0 0 1 540 540)" id="1c309d68-01da-406d-acdc-18e14255a36e"  >
<rect style="stroke: none; stroke-width: 1; stroke-dasharray: none; stroke-linecap: butt; stroke-dashoffset: 0; stroke-linejoin: miter; stroke-miterlimit: 4; fill: rgb(255,255,255); fill-rule: nonzero; opacity: 1; visibility: hidden;" vector-effect="non-scaling-stroke"  x="-540" y="-540" rx="0" ry="0" width="1080" height="1080" />
</g>
<g transform="matrix(1 0 0 1 554.95 324.53)" id="XMLID_8_"  >
<polygon style="stroke: rgb(0,0,0); stroke-width: 1; stroke-dasharray: none; stroke-linecap: butt; stroke-dashoffset: 0; stroke-linejoin: miter; stroke-miterlimit: 10; fill: rgb(255,255,255); fill-rule: nonzero; opacity: 1; visibility: hidden;" vector-effect="non-scaling-stroke"  points="-349.55,0.2 0.25,-201.9 349.55,-0.1 -0.25,201.9 " />
</g>
<g transform="matrix(1 0 0 1 369 644.58)" id="XMLID_7_"  >
<polygon style="stroke: rgb(0,0,0); stroke-width: 1; stroke-dasharray: none; stroke-linecap: butt; stroke-dashoffset: 0; stroke-linejoin: miter; stroke-miterlimit: 10; fill: rgb(255,255,255); fill-rule: nonzero; opacity: 1; visibility: hidden;" vector-effect="non-scaling-stroke"  points="-175.5,100.85 -175.5,-302.45 175.5,-101.05 175.5,302.45 " />
</g>
<g transform="matrix(1 0 0 1 737.5 644.58)" id="XMLID_6_"  >
<polygon style="stroke: rgb(0,0,0); stroke-width: 1; stroke-dasharray: none; stroke-linecap: butt; stroke-dashoffset: 0; stroke-linejoin: miter; stroke-miterlimit: 10; fill: rgb(255,255,255); fill-rule: nonzero; opacity: 1; visibility: hidden;" vector-effect="non-scaling-stroke"  points="-175,-101.05 175,-303.05 175,100.85 -175,303.05 " />
</g>
<g transform="matrix(1 0 0 1 540 542.63)" id="XMLID_4_"  >
<polygon style="stroke: rgb(0,0,0); stroke-width: 10; stroke-dasharray: none; stroke-linecap: round; stroke-dashoffset: 0; stroke-linejoin: round; stroke-miterlimit: 10; fill: rgb(255,255,255); fill-rule: nonzero; opacity: 1;" vector-effect="non-scaling-stroke"  points="-454,-261.7 0,-523.4 454,-261.7 454,261.7 0,523.4 -454,261.7 " />
</g>
<g transform="matrix(1 0 0 1 232.9 493.41)"  >
<path style="stroke: rgb(0,0,0); stroke-width: 4; stroke-dasharray: none; stroke-linecap: round; stroke-dashoffset: 0; stroke-linejoin: round; stroke-miterlimit: 10; fill: rgb(0,0,0); fill-rule: nonzero; opacity: 1;" vector-effect="non-scaling-stroke"  transform=" translate(-231.9, -490.78)" d="M 182.5 519.3 L 182.5 519.3 L 182.5 463.79999999999995 C 182.5 437.69999999999993 210.5 421.29999999999995 233.3 433.99999999999994 L 233.3 433.99999999999994 L 264.5 452.29999999999995 C 275.1 458.49999999999994 281.6 469.99999999999994 281.3 482.29999999999995 L 280.6 519.1999999999999 L 280.6 519.1999999999999 C 280.6 544.4 253.3 560.0999999999999 231.50000000000003 547.4999999999999 L 182.5 519.3" stroke-linecap="round" />
</g>
<g transform="matrix(1 0 0 1 323.35 723.59)"  >
<path style="stroke: rgb(0,0,0); stroke-width: 4; stroke-dasharray: none; stroke-linecap: round; stroke-dashoffset: 0; stroke-linejoin: round; stroke-miterlimit: 10; fill: rgb(31,78,153); fill-rule: nonzero; opacity: 1;" vector-effect="non-scaling-stroke"  transform=" translate(-322.35, -720.96)" d="M 371.8 742.7 L 372.90000000000003 462.50000000000006 L 422.6 490.90000000000003 L 472.20000000000005 519.4000000000001 L 521.8000000000001 547.9000000000001 L 521.8000000000001 604.8000000000001 L 521.8000000000001 661.7 L 521.8000000000001 718.6 L 521.8000000000001 775.5 L 521.8000000000001 832.4 L 521.8000000000001 889.4 L 521.8000000000001 946.4 L 521.8000000000001 946.4 C 521.8000000000001 971.6999999999999 494.4000000000001 987.6 472.4000000000001 975 L 472.2000000000001 974.9 L 423 946.4 L 373.4 917.9 L 323.79999999999995 889.4 L 274.19999999999993 860.9 L 224.69999999999993 832.4 L 173.8 804 L 173.8 804 C 142.4 786.4 122.9 753.2 122.9 717.2 L 122.9 547.9 L 175.7 579.1999999999999 L 174.89999999999998 578.6999999999999 L 175.7 579.1999999999999 L 221 604.6999999999999 L 221 604.6999999999999 L 221 604.6999999999999 L 221 661.8 L 221 661.8 L 221.6 683.9 C 222.2 705.4 234.1 725 252.79999999999998 735.5 L 273.09999999999997 747 L 338.9 780.7 C 353.79999999999995 788.4000000000001 371.59999999999997 777.5 371.59999999999997 760.7 L 371.8 742.7 z" stroke-linecap="round" />
</g>
<g transform="matrix(1 0 0 1 764.75 655.7)"  >
<path style="stroke: rgb(0,0,0); stroke-width: 4; stroke-dasharray: none; stroke-linecap: round; stroke-dashoffset: 0; stroke-linejoin: round; stroke-miterlimit: 10; fill: rgb(254,223,76); fill-rule: nonzero; opacity: 1;" vector-effect="non-scaling-stroke"  transform=" translate(-763.75, -653.07)" d="M 912.2 348.8 L 863.5 377.2 L 814.4 405.59999999999997 L 765 434.1 L 715.6 462.5 L 666.1 490.9 L 616.6 519.4 L 606.2 525.4 C 581.9 539.2 567 565.1 567 593 L 567 661.7 L 567 718.6 L 567 775.5 L 567 832.4 L 567 889.4 L 567 946.4 L 567 946.4 C 567 971.6999999999999 594.4 987.6 616.4 975 L 616.6 974.9 L 661.9 948.8 C 664.5 947.3 666.1 944.5 666.1 941.5 L 666.1 889.4 L 666.1 832.5 L 666.1 832.5 C 666.1 797.3 685 764.7 715.5 747.2 L 715.7 747.1 L 765.3000000000001 718.6 L 813.1 690.1 L 813.1 690.1 C 834.2 677.6 860.9 692.7 860.9 717.2 L 860.9 718.5 L 860.9 775.4 L 860.9 817.6999999999999 C 860.9 824.1999999999999 867.9 828.3 873.6 824.9999999999999 L 910.7 803.7999999999998 L 956.2 777.7999999999998 C 958.8000000000001 776.2999999999998 960.5 773.4999999999999 960.5 770.4999999999999 L 960.5 335.2 C 960.5 328.59999999999997 953.4 324.59999999999997 947.7 327.9 L 912.2 348.8 z M 812.9 633.2 L 764.1999999999999 661.7 L 715.0999999999999 690.2 L 678.4999999999999 711.3000000000001 C 672.8999999999999 714.6 665.7999999999998 710.5000000000001 665.7999999999998 704.0000000000001 L 665.8999999999999 661.7000000000002 L 665.8999999999999 661.7000000000002 C 665.8999999999999 626.5000000000001 684.7999999999998 594.0000000000001 715.2999999999998 576.4000000000002 L 715.4999999999999 576.3000000000002 L 765.0999999999999 547.9000000000002 L 814.5999999999999 519.4000000000002 L 814.5999999999999 519.4000000000002 C 835.3 507.1000000000002 861.3999999999999 522.5000000000002 860.5999999999999 546.5000000000002 L 860.5999999999999 547.8000000000002 L 860.5999999999999 599.9000000000002 C 860.5999999999999 602.9000000000002 858.9999999999999 605.6000000000003 856.4999999999999 607.2000000000002 L 812.9 633.2 z" stroke-linecap="round" />
</g>
<g transform="matrix(1 0 0 1 544.2 113.96)"  >
<path style="stroke: rgb(0,0,0); stroke-width: 4; stroke-dasharray: none; stroke-linecap: round; stroke-dashoffset: 0; stroke-linejoin: round; stroke-miterlimit: 10; fill: rgb(242,24,48); fill-rule: nonzero; opacity: 1;" vector-effect="non-scaling-stroke"  transform=" translate(-543.2, -111.34)" d="M 641.9 123 L 592.6 151.5 L 553.6 128.9 C 547.2 125.2 539.2 125.2 532.8000000000001 128.9 L 493.9000000000001 151.3 L 444.5000000000001 122.60000000000001 L 493.8000000000001 94.10000000000001 L 525.3000000000002 75.9 C 536.3000000000002 69.60000000000001 549.8000000000002 69.60000000000001 560.8000000000002 75.9 L 592.5000000000002 94.30000000000001 L 641.9 123 z" stroke-linecap="round" />
</g>
<g transform="matrix(1 0 0 1 337.67 296.43)"  >
<path style="stroke: rgb(0,0,0); stroke-width: 4; stroke-dasharray: none; stroke-linecap: round; stroke-dashoffset: 0; stroke-linejoin: round; stroke-miterlimit: 10; fill: rgb(242,24,48); fill-rule: nonzero; opacity: 1;" vector-effect="non-scaling-stroke"  transform=" translate(-336.67, -293.8)" d="M 494.4 379.7 L 445.09999999999997 408.09999999999997 L 395.79999999999995 436.49999999999994 L 346.4 407.79999999999995 L 297 379.09999999999997 L 247.6 350.4 L 198.2 321.7 L 194 319.3 C 173.9 307.6 173.9 278.6 194.1 267 L 198.1 264.7 L 247.3 236.29999999999998 L 296.5 207.89999999999998 L 345.8 179.49999999999997 L 395.1 151.09999999999997 L 444.5 179.79999999999995 L 493.9 208.49999999999994 L 444.59999999999997 236.89999999999995 L 395.29999999999995 265.4 L 345.99999999999994 293.79999999999995 L 395.3999999999999 322.49999999999994 L 445 351 L 494.4 379.7 z" stroke-linecap="round" />
</g>
<g transform="matrix(1 0 0 1 750.36 297.13)"  >
<path style="stroke: rgb(0,0,0); stroke-width: 4; stroke-dasharray: none; stroke-linecap: round; stroke-dashoffset: 0; stroke-linejoin: round; stroke-miterlimit: 10; fill: rgb(242,24,48); fill-rule: nonzero; opacity: 1;" vector-effect="non-scaling-stroke"  transform=" translate(-749.36, -294.5)" d="M 889.5 266.5 C 911.4 279.2 911.4 310.9 889.4 323.5 L 889.4 323.5 L 840 352 L 790.7 380.5 L 741.4000000000001 409 L 692.1000000000001 437.5 L 642.6000000000001 408.8 L 593.2 380 L 642.5 351.5 L 741.1 294.6 L 691.6 265.90000000000003 L 642.2 237.20000000000005 L 592.8000000000001 208.50000000000006 L 642.1 180.00000000000006 L 691.4 151.50000000000006 L 740.9 180.20000000000005 L 790.4 208.90000000000003 L 839.9 237.60000000000002 L 889.4 266.3 L 889.5 266.5 z" stroke-linecap="round" />
</g>
<g transform="matrix(1 0 0 1 544.55 296.27)"  >
<path style="stroke: rgb(0,0,0); stroke-width: 4; stroke-dasharray: none; stroke-linecap: round; stroke-dashoffset: 0; stroke-linejoin: round; stroke-miterlimit: 10; fill: rgb(242,24,48); fill-rule: nonzero; opacity: 1;" vector-effect="non-scaling-stroke"  transform=" translate(-543.55, -293.64)" d="M 642.3 294.4 L 593 322.8 L 559.8 341.90000000000003 C 549.8 347.70000000000005 537.5 347.6 527.5 341.90000000000003 L 494.2 322.6 L 444.8 293.90000000000003 L 494.1 265.50000000000006 L 530.3000000000001 244.60000000000005 C 538.4000000000001 239.90000000000006 548.4000000000001 239.90000000000006 556.5000000000001 244.60000000000005 L 592.8000000000001 265.70000000000005 L 642.3 294.4 z" stroke-linecap="round" />
</g>
<g transform="matrix(1 0 0 1 545 478.9)"  >
<path style="stroke: rgb(0,0,0); stroke-width: 4; stroke-dasharray: none; stroke-linecap: round; stroke-dashoffset: 0; stroke-linejoin: round; stroke-miterlimit: 10; fill: rgb(242,24,48); fill-rule: nonzero; opacity: 1;" vector-effect="non-scaling-stroke"  transform=" translate(-544, -476.27)" d="M 642.7 465.8 L 593.4000000000001 494.2 L 567 509.5 C 552.8 517.7 535.4 517.7 521.2 509.4 L 494.7 494 L 445.3 465.3 L 494.6 436.90000000000003 L 528 456.3 C 537.9 462.1 550.2 462.1 560.1 456.3 L 593.3000000000001 437.1 L 642.7 465.8 z" stroke-linecap="round" />
</g>
</svg>